<mxfile host="Electron" agent="Mozilla/5.0 (Windows NT 10.0; Win64; x64) AppleWebKit/537.36 (KHTML, like Gecko) draw.io/26.2.15 Chrome/134.0.6998.205 Electron/35.2.1 Safari/537.36" version="26.2.15">
  <diagram name="Página-1" id="z534Lk_ywKUNgajEfUIX">
    <mxGraphModel dx="872" dy="537" grid="1" gridSize="10" guides="1" tooltips="1" connect="1" arrows="1" fold="1" page="1" pageScale="1" pageWidth="827" pageHeight="1169" math="0" shadow="0">
      <root>
        <mxCell id="0" />
        <mxCell id="1" parent="0" />
        <mxCell id="iM2h5ejQHHY6DQbkgz_z-11" style="edgeStyle=orthogonalEdgeStyle;rounded=0;orthogonalLoop=1;jettySize=auto;html=1;exitX=0.5;exitY=1;exitDx=0;exitDy=0;exitPerimeter=0;fontStyle=1" parent="1" source="iM2h5ejQHHY6DQbkgz_z-1" target="iM2h5ejQHHY6DQbkgz_z-2" edge="1">
          <mxGeometry relative="1" as="geometry" />
        </mxCell>
        <mxCell id="iM2h5ejQHHY6DQbkgz_z-1" value="Inicio" style="strokeWidth=2;html=1;shape=mxgraph.flowchart.start_1;whiteSpace=wrap;fontStyle=1" parent="1" vertex="1">
          <mxGeometry x="364" y="10" width="100" height="60" as="geometry" />
        </mxCell>
        <mxCell id="iM2h5ejQHHY6DQbkgz_z-12" style="edgeStyle=orthogonalEdgeStyle;rounded=0;orthogonalLoop=1;jettySize=auto;html=1;exitX=0.5;exitY=1;exitDx=0;exitDy=0;fontStyle=1" parent="1" source="iM2h5ejQHHY6DQbkgz_z-2" edge="1">
          <mxGeometry relative="1" as="geometry">
            <mxPoint x="414" y="210" as="targetPoint" />
          </mxGeometry>
        </mxCell>
        <mxCell id="iM2h5ejQHHY6DQbkgz_z-2" value="Mostrar formulario para el login" style="rounded=0;whiteSpace=wrap;html=1;fontStyle=1" parent="1" vertex="1">
          <mxGeometry x="354" y="110" width="120" height="60" as="geometry" />
        </mxCell>
        <mxCell id="iM2h5ejQHHY6DQbkgz_z-3" value="Ingresar usuario y contraseña" style="shape=parallelogram;html=1;strokeWidth=2;perimeter=parallelogramPerimeter;whiteSpace=wrap;rounded=1;arcSize=12;size=0.23;" parent="1" vertex="1">
          <mxGeometry x="299" y="210" width="229" height="60" as="geometry" />
        </mxCell>
        <mxCell id="iM2h5ejQHHY6DQbkgz_z-13" style="edgeStyle=orthogonalEdgeStyle;rounded=0;orthogonalLoop=1;jettySize=auto;html=1;exitX=0.5;exitY=1;exitDx=0;exitDy=0;fontStyle=1" parent="1" target="iM2h5ejQHHY6DQbkgz_z-5" edge="1">
          <mxGeometry relative="1" as="geometry">
            <mxPoint x="414" y="270" as="sourcePoint" />
          </mxGeometry>
        </mxCell>
        <mxCell id="iM2h5ejQHHY6DQbkgz_z-5" value="Validar sus credenciales" style="rounded=0;whiteSpace=wrap;html=1;fontStyle=1" parent="1" vertex="1">
          <mxGeometry x="354" y="330" width="120" height="60" as="geometry" />
        </mxCell>
        <mxCell id="iM2h5ejQHHY6DQbkgz_z-15" style="edgeStyle=orthogonalEdgeStyle;rounded=0;orthogonalLoop=1;jettySize=auto;html=1;exitX=1;exitY=0.5;exitDx=0;exitDy=0;exitPerimeter=0;entryX=0;entryY=0.5;entryDx=0;entryDy=0;fontStyle=1" parent="1" source="iM2h5ejQHHY6DQbkgz_z-6" target="iM2h5ejQHHY6DQbkgz_z-24" edge="1">
          <mxGeometry relative="1" as="geometry">
            <mxPoint x="530" y="500" as="targetPoint" />
          </mxGeometry>
        </mxCell>
        <mxCell id="iM2h5ejQHHY6DQbkgz_z-16" style="edgeStyle=orthogonalEdgeStyle;rounded=0;orthogonalLoop=1;jettySize=auto;html=1;exitX=0;exitY=0.5;exitDx=0;exitDy=0;exitPerimeter=0;entryX=0.5;entryY=0;entryDx=0;entryDy=0;fontStyle=1" parent="1" source="iM2h5ejQHHY6DQbkgz_z-6" target="iM2h5ejQHHY6DQbkgz_z-28" edge="1">
          <mxGeometry relative="1" as="geometry">
            <mxPoint x="299" y="500" as="targetPoint" />
          </mxGeometry>
        </mxCell>
        <mxCell id="iM2h5ejQHHY6DQbkgz_z-6" value="Los datos de inicio son correctos" style="strokeWidth=2;html=1;shape=mxgraph.flowchart.decision;whiteSpace=wrap;fontStyle=1" parent="1" vertex="1">
          <mxGeometry x="356" y="450" width="116" height="100" as="geometry" />
        </mxCell>
        <mxCell id="iM2h5ejQHHY6DQbkgz_z-10" value="Imprime un reporte general con todos los incios de sesion" style="strokeWidth=2;html=1;shape=mxgraph.flowchart.multi-document;whiteSpace=wrap;fontStyle=1" parent="1" vertex="1">
          <mxGeometry x="109.5" y="780" width="147" height="70" as="geometry" />
        </mxCell>
        <mxCell id="iM2h5ejQHHY6DQbkgz_z-14" style="edgeStyle=orthogonalEdgeStyle;rounded=0;orthogonalLoop=1;jettySize=auto;html=1;exitX=0.5;exitY=1;exitDx=0;exitDy=0;entryX=0.5;entryY=0;entryDx=0;entryDy=0;entryPerimeter=0;fontStyle=1" parent="1" source="iM2h5ejQHHY6DQbkgz_z-5" target="iM2h5ejQHHY6DQbkgz_z-6" edge="1">
          <mxGeometry relative="1" as="geometry" />
        </mxCell>
        <mxCell id="iM2h5ejQHHY6DQbkgz_z-19" value="Solo imprime 1 reporte de la sesion actual" style="strokeWidth=2;html=1;shape=mxgraph.flowchart.document2;whiteSpace=wrap;size=0.25;fontStyle=1" parent="1" vertex="1">
          <mxGeometry x="113" y="640" width="140" height="60" as="geometry" />
        </mxCell>
        <mxCell id="iM2h5ejQHHY6DQbkgz_z-21" value="Fin" style="strokeWidth=2;html=1;shape=mxgraph.flowchart.start_1;whiteSpace=wrap;fontStyle=1" parent="1" vertex="1">
          <mxGeometry x="350" y="860" width="100" height="60" as="geometry" />
        </mxCell>
        <mxCell id="iM2h5ejQHHY6DQbkgz_z-24" value="Error" style="shape=parallelogram;html=1;strokeWidth=2;perimeter=parallelogramPerimeter;whiteSpace=wrap;rounded=1;arcSize=12;size=0.23;" parent="1" vertex="1">
          <mxGeometry x="590" y="470" width="100" height="60" as="geometry" />
        </mxCell>
        <mxCell id="iM2h5ejQHHY6DQbkgz_z-26" style="edgeStyle=orthogonalEdgeStyle;rounded=0;orthogonalLoop=1;jettySize=auto;html=1;exitX=1;exitY=0.5;exitDx=0;exitDy=0;entryX=1;entryY=0.5;entryDx=0;entryDy=0;entryPerimeter=0;" parent="1" source="iM2h5ejQHHY6DQbkgz_z-24" target="iM2h5ejQHHY6DQbkgz_z-21" edge="1">
          <mxGeometry relative="1" as="geometry">
            <Array as="points">
              <mxPoint x="750" y="500" />
              <mxPoint x="750" y="890" />
            </Array>
          </mxGeometry>
        </mxCell>
        <mxCell id="iM2h5ejQHHY6DQbkgz_z-28" value="Exito" style="rounded=1;whiteSpace=wrap;html=1;absoluteArcSize=1;arcSize=14;strokeWidth=2;" parent="1" vertex="1">
          <mxGeometry x="90" y="534.5" width="186" height="55.5" as="geometry" />
        </mxCell>
        <mxCell id="iM2h5ejQHHY6DQbkgz_z-32" style="edgeStyle=orthogonalEdgeStyle;rounded=0;orthogonalLoop=1;jettySize=auto;html=1;entryX=0.5;entryY=0;entryDx=0;entryDy=0;entryPerimeter=0;" parent="1" source="iM2h5ejQHHY6DQbkgz_z-19" target="iM2h5ejQHHY6DQbkgz_z-21" edge="1">
          <mxGeometry relative="1" as="geometry" />
        </mxCell>
        <mxCell id="iM2h5ejQHHY6DQbkgz_z-36" value="Si" style="text;html=1;align=center;verticalAlign=middle;resizable=0;points=[];autosize=1;strokeColor=none;fillColor=none;" parent="1" vertex="1">
          <mxGeometry x="313" y="470" width="30" height="30" as="geometry" />
        </mxCell>
        <mxCell id="iM2h5ejQHHY6DQbkgz_z-38" style="edgeStyle=orthogonalEdgeStyle;rounded=0;orthogonalLoop=1;jettySize=auto;html=1;exitX=0.5;exitY=0.88;exitDx=0;exitDy=0;exitPerimeter=0;entryX=0;entryY=0.5;entryDx=0;entryDy=0;entryPerimeter=0;" parent="1" source="iM2h5ejQHHY6DQbkgz_z-10" target="iM2h5ejQHHY6DQbkgz_z-21" edge="1">
          <mxGeometry relative="1" as="geometry">
            <Array as="points">
              <mxPoint x="183" y="890" />
            </Array>
          </mxGeometry>
        </mxCell>
        <mxCell id="iM2h5ejQHHY6DQbkgz_z-39" value="No" style="text;html=1;align=center;verticalAlign=middle;resizable=0;points=[];autosize=1;strokeColor=none;fillColor=none;" parent="1" vertex="1">
          <mxGeometry x="475" y="470" width="40" height="30" as="geometry" />
        </mxCell>
        <mxCell id="ZtdePG_amZwQFnqWfogY-1" style="edgeStyle=orthogonalEdgeStyle;rounded=0;orthogonalLoop=1;jettySize=auto;html=1;exitX=0.5;exitY=1;exitDx=0;exitDy=0;entryX=0.5;entryY=0;entryDx=0;entryDy=0;entryPerimeter=0;" edge="1" parent="1" source="iM2h5ejQHHY6DQbkgz_z-28" target="iM2h5ejQHHY6DQbkgz_z-19">
          <mxGeometry relative="1" as="geometry" />
        </mxCell>
        <mxCell id="ZtdePG_amZwQFnqWfogY-2" value="" style="endArrow=classic;html=1;rounded=0;exitX=0.503;exitY=0.919;exitDx=0;exitDy=0;exitPerimeter=0;entryX=0.5;entryY=0;entryDx=0;entryDy=0;entryPerimeter=0;" edge="1" parent="1" source="iM2h5ejQHHY6DQbkgz_z-19" target="iM2h5ejQHHY6DQbkgz_z-10">
          <mxGeometry width="50" height="50" relative="1" as="geometry">
            <mxPoint x="390" y="780" as="sourcePoint" />
            <mxPoint x="440" y="730" as="targetPoint" />
          </mxGeometry>
        </mxCell>
      </root>
    </mxGraphModel>
  </diagram>
</mxfile>
